<svg width="126" height="17" viewBox="0 0 126 17" fill="none" xmlns="http://www.w3.org/2000/svg">
<g clip-path="url(#clip0_1_21)">
<path d="M5.791 0.327972L0 16.674H16.209L17.733 12.182H8.368L12.261 0.327972H5.791Z" fill="black"/>
<path d="M53.92 16.674L56.62 8.57398L49.996 14.388H49.88L47.149 8.57398L44.449 16.674H37.796L41.759 5.07898H28.876L28.323 6.64898H38.972L37.665 10.596H27.016L26.406 12.196H37.214L35.732 16.679H18.242L23.704 0.332977H49.969L52.409 6.07798L58.685 0.332977H66.152L60.69 16.679L53.92 16.674Z" fill="black"/>
<path d="M100.842 14.849C98.924 16.39 96.019 16.997 92.794 16.997C87.071 16.997 83.994 14.797 83.994 11.113C84.0008 10.216 84.1479 9.32552 84.43 8.47397L86.763 1.51197L78.963 7.79697L83.205 16.67H75.972L73.531 11.416L70.682 13.708L69.694 16.674H62.894L68.356 0.327972H75.156L73.182 6.18897L79.952 0.327972H94.072L91.225 8.82797C91.0856 9.24275 91.0075 9.67564 90.993 10.113C90.993 11.467 91.981 12.168 93.782 12.168C94.5637 12.1927 95.331 11.9543 95.961 11.491C96.6745 10.8617 97.181 10.0314 97.414 9.10897L100.348 0.328972H107.263L104.038 9.94897C103.475 11.8609 102.362 13.565 100.838 14.849" fill="black"/>
<path d="M117.375 6.44499C120.832 7.47299 123.04 8.63999 123.04 11.138C123.033 11.8832 122.853 12.6167 122.515 13.2811C122.177 13.9455 121.691 14.5228 121.093 14.968C119.557 16.206 117.057 17 113.831 17C110.262 17.0809 106.757 16.0438 103.807 14.034L107.7 10.298C109.706 11.7309 112.093 12.5356 114.557 12.61C115.429 12.61 116.039 12.353 116.039 11.886C116.039 11.372 115.661 11.209 112.698 10.321C108.921 9.19999 107.149 8.12099 107.149 5.72099C107.171 5.01135 107.356 4.31623 107.688 3.68879C108.02 3.06136 108.492 2.51824 109.066 2.10099C111.175 0.612251 113.722 -0.127406 116.3 -1.40583e-05C119.497 -0.0924408 122.65 0.760502 125.365 2.45199L121.472 6.18799C119.723 5.0475 117.691 4.41661 115.603 4.36599C114.731 4.36599 114.121 4.55299 114.121 5.01999C114.121 5.50999 114.557 5.60399 117.375 6.44399" fill="black"/>
</g>
<defs>
<clipPath id="clip0_1_21">
<rect width="125.365" height="17.001" fill="white"/>
</clipPath>
</defs>
</svg>
