<svg width="1240" height="169" viewBox="0 0 1240 169" fill="none" xmlns="http://www.w3.org/2000/svg">
<g clip-path="url(#clip0_4_175)">
<path d="M57.2795 3.2605L0 165.749H160.325L175.399 121.096H82.7689L121.275 3.2605H57.2795Z" fill="white"/>
<path d="M533.329 165.749L560.035 85.2305L494.516 143.025H493.369L466.356 85.2305L439.65 165.749H373.845L413.043 50.4881H285.616L280.146 66.0948H385.477L372.549 105.33H267.218L261.185 121.235H368.088L353.429 165.799H180.434L234.459 3.31006H494.249L518.384 60.4188L580.46 3.31006H654.317L600.292 165.799L533.329 165.749Z" fill="white"/>
<path d="M997.44 147.608C978.469 162.926 949.735 168.96 917.836 168.96C861.23 168.96 830.794 147.091 830.794 110.47C830.862 101.553 832.317 92.7014 835.107 84.2366L858.183 15.0302L781.032 77.5068L822.99 165.71H751.448L727.304 113.482L699.124 136.266L689.352 165.749H622.092L676.117 3.2605H743.377L723.852 61.5223L790.815 3.2605H930.477L902.317 87.7555C900.939 91.8786 900.165 96.1818 900.023 100.529C900.023 113.989 909.795 120.957 927.609 120.957C935.34 121.203 942.93 118.833 949.162 114.227C956.219 107.972 961.229 99.7178 963.533 90.5488L992.554 3.27044H1060.95L1029.05 98.8989C1023.49 117.905 1012.48 134.845 997.401 147.608" fill="white"/>
<path d="M1160.97 64.067C1195.16 74.2859 1217 85.8866 1217 110.718C1216.93 118.127 1215.15 125.417 1211.81 132.022C1208.47 138.626 1203.66 144.365 1197.75 148.791C1182.55 161.097 1157.82 168.99 1125.92 168.99C1090.62 169.794 1055.95 159.485 1026.77 139.506L1065.27 102.368C1085.12 116.612 1108.72 124.611 1133.1 125.351C1141.72 125.351 1147.76 122.796 1147.76 118.154C1147.76 113.044 1144.02 111.424 1114.71 102.597C1077.35 91.4533 1059.82 80.7274 1059.82 56.87C1060.04 49.8158 1061.87 42.9059 1065.15 36.6688C1068.44 30.4317 1073.1 25.0328 1078.78 20.8851C1099.64 6.08615 1124.83 -1.26648 1150.34 -0.000122845C1181.96 -0.918899 1213.15 7.55985 1240 24.3742L1201.49 61.5123C1184.19 50.1752 1164.09 43.9037 1143.44 43.4005C1134.82 43.4005 1128.78 45.2594 1128.78 49.9017C1128.78 54.7725 1133.1 55.707 1160.97 64.0571" fill="white"/>
</g>
<defs>
<clipPath id="clip0_4_175">
<rect width="1240" height="169" fill="white"/>
</clipPath>
</defs>
</svg>
