<svg width="9" height="14" viewBox="0 0 9 14" fill="none" xmlns="http://www.w3.org/2000/svg">
<path d="M1.83936 0.409485C1.997 0.408692 2.15336 0.439149 2.29899 0.499113C2.44463 0.559077 2.57667 0.647277 2.68757 0.75848L8.28898 6.31068C8.51376 6.53372 8.64001 6.83608 8.64001 7.15144C8.64001 7.46665 8.51376 7.76901 8.28898 7.99221L2.68757 13.4968C2.46192 13.6417 2.19385 13.7075 1.9261 13.6834C1.65835 13.6593 1.40645 13.5468 1.21088 13.3639C1.01531 13.181 0.887437 12.9384 0.847587 12.6748C0.807736 12.4113 0.85831 12.1421 0.991144 11.9104L5.79236 7.15144L0.991143 2.39241C0.766286 2.16922 0.640013 1.86686 0.640013 1.55165C0.640013 1.23629 0.766286 0.933932 0.991143 0.710892C1.22272 0.503557 1.5276 0.395208 1.83936 0.409485Z" fill="black"/>
</svg>
