<svg width="26" height="22" viewBox="0 0 26 22" fill="none" xmlns="http://www.w3.org/2000/svg">
<path d="M3.05661 12.3443L11.771 20.5306C12.0712 20.8125 12.2212 20.9535 12.3982 20.9882C12.4779 21.0039 12.5599 21.0039 12.6396 20.9882C12.8166 20.9535 12.9666 20.8125 13.2668 20.5306L21.9812 12.3443C24.4331 10.0411 24.7308 6.2508 22.6687 3.59293L22.281 3.09316C19.8141 -0.0864066 14.8623 0.446827 13.1289 4.07872C12.884 4.59175 12.1538 4.59175 11.9089 4.07872C10.1756 0.446827 5.22379 -0.0864066 2.75688 3.09318L2.36914 3.59293C0.307003 6.2508 0.604748 10.0411 3.05661 12.3443Z" stroke="black" stroke-width="2"/>
</svg>
