<svg width="34" height="30" viewBox="0 0 34 30" fill="none" xmlns="http://www.w3.org/2000/svg">
<path d="M3.85667 16.882L15.9612 28.3429C16.3781 28.7375 16.5865 28.9349 16.8324 28.9835C16.9431 29.0055 17.057 29.0055 17.1677 28.9835C17.4135 28.9349 17.6219 28.7375 18.0389 28.3429L30.1433 16.882C33.5491 13.6575 33.9625 8.35112 31.0983 4.6301L30.5598 3.93043C27.1331 -0.520969 20.255 0.225558 17.8474 5.31021C17.5072 6.02845 16.4929 6.02845 16.1527 5.31021C13.7451 0.225558 6.86694 -0.520969 3.44035 3.93045L2.90177 4.6301C0.0374132 8.35112 0.450986 13.6575 3.85667 16.882Z" stroke="black" stroke-width="2"/>
</svg>
