<svg width="24" height="24" viewBox="0 0 24 24" fill="none" xmlns="http://www.w3.org/2000/svg">
<circle cx="12" cy="12" r="11.5" stroke="black"/>
<path d="M7.57564 15.5758C7.34132 15.8101 7.34132 16.1899 7.57564 16.4242C7.80995 16.6586 8.18985 16.6586 8.42416 16.4242L7.57564 15.5758ZM12.4241 12.4242C12.6585 12.1899 12.6585 11.8101 12.4241 11.5758C12.1898 11.3414 11.81 11.3414 11.5757 11.5758L12.4241 12.4242ZM11.5757 11.5758C11.3413 11.8101 11.3413 12.1899 11.5757 12.4242C11.81 12.6586 12.1898 12.6586 12.4241 12.4242L11.5757 11.5758ZM16.4241 8.42426C16.6585 8.18994 16.6585 7.81004 16.4241 7.57573C16.1898 7.34142 15.81 7.34142 15.5757 7.57573L16.4241 8.42426ZM12.4241 11.5758C12.1898 11.3414 11.81 11.3414 11.5757 11.5758C11.3413 11.8101 11.3413 12.1899 11.5757 12.4242L12.4241 11.5758ZM15.5757 16.4242C15.81 16.6586 16.1898 16.6586 16.4241 16.4242C16.6585 16.1899 16.6585 15.8101 16.4241 15.5758L15.5757 16.4242ZM11.5757 12.4242C11.81 12.6586 12.1898 12.6586 12.4241 12.4242C12.6585 12.1899 12.6585 11.8101 12.4241 11.5758L11.5757 12.4242ZM8.42416 7.57573C8.18985 7.34142 7.80995 7.34142 7.57564 7.57573C7.34132 7.81004 7.34132 8.18994 7.57564 8.42426L8.42416 7.57573ZM8.42416 16.4242L12.4241 12.4242L11.5757 11.5758L7.57564 15.5758L8.42416 16.4242ZM12.4241 12.4242L16.4241 8.42426L15.5757 7.57573L11.5757 11.5758L12.4241 12.4242ZM11.5757 12.4242L15.5757 16.4242L16.4241 15.5758L12.4241 11.5758L11.5757 12.4242ZM12.4241 11.5758L8.42416 7.57573L7.57564 8.42426L11.5757 12.4242L12.4241 11.5758Z" fill="black"/>
</svg>
